<?xml version="1.0" encoding="UTF-8" standalone="no"?>
<svg fill-rule="evenodd" height="175" width="210"
     font-family="Arial, sans-serif"
     font-size="16" font-weight="400" text-anchor="middle"
     preserveAspectRatio="xMidYMid" stroke-linejoin="round"
     xmlns="http://www.w3.org/2000/svg">
  <defs id="defs48">
    <marker
       orient="auto"
       refY="0.0"
       refX="0.0"
       id="Arrow1Lend"
       style="overflow:visible;">
      <path
         id="path863"
         d="M 0.0,0.0 L 5.0,-5.0 L -12.5,0.0 L 5.0,5.0 L 0.0,0.0 z "
         style="fill-rule:evenodd;stroke:#000000;stroke-width:1pt;
                stroke-opacity:1;fill:#000000;fill-opacity:1"
         transform="scale(0.8) rotate(180) translate(12.5,0)" />
    </marker>
  </defs>
  <!-- top arrow (starts 40px above bottom arrow) -->
  <g stroke-width="1">
    <path d="M85,79 125,79" fill="none" stroke="#000"
	  style="marker-end:url(#Arrow1Lend)"/>
  </g>
  <path d="m52.5,89 h-30 v-24 h60 v24z" fill="#c0c0c0"/>
  <text x="52.5" y="82">
    <tspan>final</tspan>
  </text>
  <!-- bottom arrow -->
  <g stroke-width="1">
    <path d="M85,119 135,119" fill="none" stroke="#000"
	  style="marker-end:url(#Arrow1Lend)"/>
  </g>
  <path d="m52.5,132 h-30 v-24 h60 v24z" fill="#c0c0c0"/>
  <text x="52.5" y="125">
    <tspan >original</tspan>
  </text>
  <path d="m157.5,92 h-30 v-24 h60 v24z" fill="none" stroke="#000" stroke-width="1.5"/>
  <text x="157.5" y="85">
    <tspan>273.15</tspan>
  </text>
  <path d="m157.5,132 h-15 v-24 h30 v24z" fill="none" stroke="#000" stroke-width="1.5"/>
  <text x="157.5" y="125">
    <tspan>32</tspan>
  </text>
  <text x="52.5" y="165">
    <tspan>Variables</tspan>
  </text>
  <text x="157.5" y="165">
    <tspan>Values</tspan>
  </text>
  <!-- variable / value border -->
  <g fill="none" stroke="#000" stroke-dasharray="2 2" stroke-width="2">
    <path d="m105,0 v175"/>
    <path d="m0,144 h210"/>
  </g>
</svg>
