<?xml version="1.0" encoding="UTF-8" standalone="no"?>
<svg fill-rule="evenodd" height="215" width="380"
     font-family="Arial, sans-serif"
     font-size="16" font-weight="400" text-anchor="middle"
     preserveAspectRatio="xMidYMid" stroke-linejoin="round"
     xmlns="http://www.w3.org/2000/svg">
  <defs id="defs48">
    <marker
       orient="auto"
       refY="0.0"
       refX="0.0"
       id="Arrow1Lend"
       style="overflow:visible;">
      <path
         id="path863"
         d="M 0.0,0.0 L 5.0,-5.0 L -12.5,0.0 L 5.0,5.0 L 0.0,0.0 z "
         style="fill-rule:evenodd;stroke:#000000;stroke-width:1pt;
                stroke-opacity:1;fill:#000000;fill-opacity:1"
         transform="scale(0.8) rotate(180) translate(12.5,0)" />
    </marker>
  </defs>
  <!-- translate 180,40 pixels to be consistent with original stack image -->
  <g transform="translate(180,40)">
    <!-- top arrow (starts 40px above third arrow) -->
    <g stroke-width="1">
      <path d="M85,-1 125,-1" fill="none" stroke="#000"
	    style="marker-end:url(#Arrow1Lend)"/>
    </g>
    <path d="m52.5,9 h-30 v-24 h60 v24z" fill="#c0c0c0"/>
    <text x="52.5" y="2">
      <tspan>temp_K</tspan>
    </text>
    <!-- second arrow (starts 40px above third arrow) -->
    <g stroke-width="1">
      <path d="M85,39 H140" fill="none" stroke="#000"
	    style="marker-end:url(#Arrow1Lend)"/>
    </g>
    <path d="m52.5,49 h-30 v-24 h60 v24z" fill="#c0c0c0"/>
    <text x="52.5" y="42">
      <tspan>temp_C</tspan>
    </text>
    <!-- third arrow (starts 40px above bottom arrow) -->
    <g stroke-width="1">
      <path d="M85,79 133,115" fill="none" stroke="#000"
	    style="marker-end:url(#Arrow1Lend)"/>
    </g>
    <path d="m52.5,89 h-30 v-24 h60 v24z" fill="#c0c0c0"/>
    <text x="52.5" y="82">
      <tspan>temp_F</tspan>
    </text>
    <g transform="scale(1,3)">
      <text font-size="40" x="-10" y="23">
	<tspan>{</tspan>
      </text>
    </g>
    <text font-style="italic" x="-20" y="42" text-anchor="end">
      <tspan>fahrenheit_to_kelvin</tspan>
    </text>
    <!-- bottom arrow -->
    <g stroke-width="1">
      <path d="M85,119 135,119" fill="none" stroke="#000"
	    style="marker-end:url(#Arrow1Lend)"/>
    </g>
    <path d="m52.5,132 h-30 v-24 h60 v24z" fill="#c0c0c0"/>
    <text x="52.5" y="125">
      <tspan >original</tspan>
    </text>
    <path d="m157.5,12 h-30 v-24 h60 v24z" fill="none" stroke="#000" stroke-width="1.5"/>
    <text x="157.5" y="5">
      <tspan>273.15</tspan>
    </text>
    <path d="m157.5,52 h-10 v-24 h20 v24z" fill="none" stroke="#000" stroke-width="1.5"/>
    <text x="157.5" y="45">
      <tspan>0</tspan>
    </text>
    <path d="m157.5,132 h-15 v-24 h30 v24z" fill="none" stroke="#000" stroke-width="1.5"/>
    <text x="157.5" y="125">
      <tspan>32</tspan>
    </text>
    <text x="52.5" y="165">
      <tspan>Variables</tspan>
    </text>
    <text x="157.5" y="165">
      <tspan>Values</tspan>
    </text>
    <!-- variable / value border -->
    <g fill="none" stroke="#000" stroke-dasharray="2 2" stroke-width="2">
      <path d="m105,-40 v215"/>
      <path d="m0,144 h210"/>
      <path d="m0,99 h210"/>
    </g>
  </g>
</svg>
