<?xml version="1.0" encoding="UTF-8" standalone="no"?>
<svg height="246.2mm" width="210.9mm" xmlns="http://www.w3.org/2000/svg" xmlns:xlink="http://www.w3.org/1999/xlink"
     font-family="sans-serif">
  <use transform="translate(180.3 10.5)" xlink:href="#a"/>
  <use transform="translate(180.3 -294.3)" xlink:href="#a"/>
  <g id="a" transform="translate(20 26)">
    <path d="m36.3 494.6 1.8-76.2h29.5v9.9l55.4-.7v4.2" fill="#a80" fill-rule="evenodd" stroke="#000" stroke-width=".7"/>
    <path d="m37.6 491.1 13.2-48.7h22.9l4.2-11.3 59.6.7-15.7 61.7-86 .4z" fill="#fc0" fill-rule="evenodd" stroke="#000" stroke-width=".7"/>
  </g>
  <text x="37.2" y="538.6"><tspan font-size="20" x="37.2" y="538.6">tempConvert</tspan></text>
  <text x="281.1" y="204.3"><tspan font-size="20" x="281.1" y="204.3">R</tspan></text>
  <text x="267.6" y="509.8"><tspan font-size="20" x="267.6" y="509.8">man</tspan></text>
  <text x="384" y="166.1"><tspan font-size="20" x="384" y="166.1">fahr_to_celsius.R</tspan></text>
  <text x="590.8" y="166.1"><tspan font-size="20" x="590.8" y="166.1">fahr_to_kelvin.R</tspan></text>
  <text x="475.5" y="291.8"><tspan font-size="20" x="475.5" y="291.8">celsius_to_kelvin.R</tspan></text>
  <text x="384" y="470.7"><tspan font-size="20" x="384" y="470.7">fahr_to_celsius.Rd</tspan></text>
  <text x="579.4" y="470.7"><tspan font-size="20" x="579.4" y="470.7">fahr_to_kelvin.Rd</tspan></text>
  <text x="469.8" y="604.4"><tspan font-size="20" x="469.8" y="604.4">celsius_to_kelvin.Rd</tspan></text>
  <g id="b" transform="translate(20 26)">
    <path d="m233.1 610.6h67.2v81.3h-67.2z" fill="#fff" stroke="#000"/>
    <path d="m246.5 626.2 38.9-.7" fill="none" stroke="#000"/>
    <path d="m246.5 664.1 38.9-.7" fill="none" stroke="#000"/>
    <path d="m246.5 651.5 38.9-.7" fill="none" stroke="#000"/>
    <path d="m246.5 638.8 38.9-.7" fill="none" stroke="#000"/>
    <path d="m246.5 676.8 38.9-.7" fill="none" stroke="#000"/>
  </g>
  <text x="219" y="738.8"><tspan font-size="20" x="219" y="738.8">DESCRIPTION</tspan></text>
  <text x="225.4" y="868.8"><tspan font-size="20" x="225.4" y="868.8">NAMESPACE</tspan></text>
  <g fill="none" stroke="#000" transform="translate(20 26)">
    <g>
      <path d="m205.2 101.6s-27 0-29 29.8-15 342.7-27 347.3"/>
      <path d="m205.2 854s-27 0-29-29.8-15-342.7-27-347.3"/>
    </g>
    <g>
      <path d="m378.3 18s-27.1 0-29.1 10.9-15 125.3-27.1 126.9"/>
      <path d="m378.3 293.1s-27.1 0-29.1-10.9-15-125.3-27.1-126.9"/>
    </g>
    <g>
      <path d="m378.3 326s-27.1 0-29.1 10.9-15 125.3-27.1 126.9"/>
      <path d="m378.3 601.1s-27.1 0-29.1-10.9-15-125.3-27.1-126.9"/>
    </g>
  </g>
  <use transform="translate(1.3 128.6)" xlink:href="#b"/>
  <use transform="translate(282.6 -139.2)" xlink:href="#b"/>
  <use transform="translate(187.2 -271.8)" xlink:href="#b"/>
  <use transform="translate(378 -271.8)" xlink:href="#b"/>
  <use transform="translate(282.6 -448.1)" xlink:href="#b"/>
  <use transform="translate(181.4 -578.1)" xlink:href="#b"/>
  <use transform="translate(383.7 -576.7)" xlink:href="#b"/>
</svg>
